<svg width="282" height="57" viewBox="0 0 282 57" fill="none" xmlns="http://www.w3.org/2000/svg">
<rect width="282" height="57" rx="8" fill="#8F542E"/>
<path d="M35.1047 35H27.4758V22.1504H35.1047V24.9365H30.9475V26.958H34.7971V29.7441H30.9475V32.1699H35.1047V35ZM50.1291 35H45.5764L40.883 25.9473H40.8039C40.8332 26.2227 40.8596 26.5537 40.883 26.9404C40.9065 27.3271 40.927 27.7227 40.9445 28.127C40.9621 28.5254 40.9709 28.8857 40.9709 29.208V35H37.8947V22.1504H42.4299L47.1057 31.0801H47.1584C47.1408 30.7988 47.1233 30.4736 47.1057 30.1045C47.0881 29.7295 47.0705 29.3516 47.0529 28.9707C47.0412 28.5898 47.0354 28.2529 47.0354 27.96V22.1504H50.1291V35ZM64.547 22.1504L60.3371 35H56.2502L52.0578 22.1504H55.9601L57.7092 28.6631C57.7736 28.9092 57.8468 29.2256 57.9289 29.6123C58.0168 29.9932 58.0959 30.374 58.1662 30.7549C58.2424 31.1357 58.2892 31.4463 58.3068 31.6865C58.3302 31.4463 58.3742 31.1387 58.4386 30.7637C58.5031 30.3887 58.5734 30.0137 58.6496 29.6387C58.7316 29.2578 58.8078 28.9443 58.8781 28.6982L60.6623 22.1504H64.547ZM66.4845 35V22.1504H69.9738V35H66.4845ZM81.1837 35L80.5509 32.5918H76.3761L75.7257 35H71.9112L76.1036 22.0977H80.7354L84.9806 35H81.1837ZM79.8302 29.7441L79.2765 27.6348C79.2179 27.4062 79.1329 27.0811 79.0216 26.6592C78.9102 26.2314 78.7989 25.792 78.6876 25.3408C78.5821 24.8838 78.5001 24.5088 78.4415 24.2158C78.3888 24.5088 78.3126 24.8721 78.213 25.3057C78.1192 25.7334 78.0196 26.1582 77.9142 26.5801C77.8145 27.002 77.7267 27.3535 77.6505 27.6348L77.0968 29.7441H79.8302ZM91.128 22.1504C92.294 22.1504 93.2637 22.2939 94.0372 22.5811C94.8106 22.8623 95.3907 23.2842 95.7774 23.8467C96.17 24.4092 96.3663 25.1094 96.3663 25.9473C96.3663 26.4688 96.2784 26.9434 96.1026 27.3711C95.9268 27.7988 95.6749 28.1826 95.3467 28.5225C95.0245 28.8564 94.6377 29.1494 94.1866 29.4014L97.9307 35H93.9932L91.2686 30.3242H90.3897V35H86.918V22.1504H91.128ZM91.0752 24.7783H90.3897V27.7139H91.0401C91.5733 27.7139 92.0098 27.5967 92.3497 27.3623C92.6895 27.1279 92.8594 26.709 92.8594 26.1055C92.8594 25.6895 92.7188 25.3643 92.4375 25.1299C92.1563 24.8955 91.7022 24.7783 91.0752 24.7783ZM110.454 35L107.826 25.7451H107.747C107.77 25.9854 107.794 26.3105 107.817 26.7207C107.847 27.1309 107.873 27.5732 107.896 28.0479C107.92 28.5225 107.932 28.9795 107.932 29.4189V35H104.855V22.1504H109.478L112.159 31.2734H112.229L114.857 22.1504H119.489V35H116.299V29.3662C116.299 28.9619 116.305 28.5283 116.316 28.0654C116.334 27.5967 116.352 27.1572 116.369 26.7471C116.393 26.3311 116.413 26.0029 116.431 25.7627H116.352L113.759 35H110.454ZM130.427 35H122.798V22.1504H130.427V24.9365H126.269V26.958H130.119V29.7441H126.269V32.1699H130.427V35ZM145.451 35H140.898L136.205 25.9473H136.126C136.155 26.2227 136.182 26.5537 136.205 26.9404C136.228 27.3271 136.249 27.7227 136.266 28.127C136.284 28.5254 136.293 28.8857 136.293 29.208V35H133.217V22.1504H137.752L142.428 31.0801H142.48C142.463 30.7988 142.445 30.4736 142.428 30.1045C142.41 29.7295 142.392 29.3516 142.375 28.9707C142.363 28.5898 142.357 28.2529 142.357 27.96V22.1504H145.451V35ZM157.171 31.0977C157.171 31.7949 156.995 32.457 156.643 33.084C156.292 33.7051 155.744 34.209 155 34.5957C154.262 34.9824 153.306 35.1758 152.135 35.1758C151.549 35.1758 151.033 35.1494 150.588 35.0967C150.148 35.0439 149.738 34.959 149.357 34.8418C148.976 34.7188 148.581 34.5605 148.171 34.3672V31.2734C148.868 31.625 149.571 31.8945 150.28 32.082C150.989 32.2637 151.631 32.3545 152.205 32.3545C152.551 32.3545 152.832 32.3135 153.049 32.2314C153.271 32.1494 153.435 32.0381 153.541 31.8975C153.646 31.751 153.699 31.584 153.699 31.3965C153.699 31.1738 153.62 30.9863 153.462 30.834C153.309 30.6758 153.063 30.5117 152.723 30.3418C152.384 30.1719 151.935 29.9609 151.379 29.709C150.904 29.4863 150.473 29.2578 150.087 29.0234C149.706 28.7891 149.378 28.5225 149.102 28.2236C148.833 27.9189 148.625 27.5645 148.478 27.1602C148.332 26.7559 148.259 26.2783 148.259 25.7275C148.259 24.9014 148.461 24.21 148.865 23.6533C149.275 23.0908 149.844 22.6689 150.57 22.3877C151.303 22.1064 152.146 21.9658 153.101 21.9658C153.939 21.9658 154.692 22.0596 155.36 22.2471C156.034 22.4346 156.638 22.6484 157.171 22.8887L156.107 25.5693C155.556 25.3174 155.015 25.1182 154.481 24.9717C153.948 24.8193 153.453 24.7432 152.996 24.7432C152.697 24.7432 152.451 24.7812 152.258 24.8574C152.07 24.9277 151.93 25.0244 151.836 25.1475C151.748 25.2705 151.704 25.4111 151.704 25.5693C151.704 25.7686 151.78 25.9473 151.932 26.1055C152.091 26.2637 152.351 26.4365 152.715 26.624C153.084 26.8057 153.585 27.043 154.218 27.3359C154.845 27.6172 155.378 27.9219 155.817 28.25C156.257 28.5723 156.591 28.9619 156.819 29.4189C157.054 29.8701 157.171 30.4297 157.171 31.0977ZM167.581 35L166.948 32.5918H162.773L162.123 35H158.308L162.501 22.0977H167.133L171.378 35H167.581ZM166.227 29.7441L165.674 27.6348C165.615 27.4062 165.53 27.0811 165.419 26.6592C165.307 26.2314 165.196 25.792 165.085 25.3408C164.979 24.8838 164.897 24.5088 164.839 24.2158C164.786 24.5088 164.71 24.8721 164.61 25.3057C164.516 25.7334 164.417 26.1582 164.311 26.5801C164.212 27.002 164.124 27.3535 164.048 27.6348L163.494 29.7441H166.227ZM178.474 27.4766H184.02V34.4023C183.358 34.6309 182.599 34.8184 181.744 34.9648C180.888 35.1055 179.992 35.1758 179.054 35.1758C177.818 35.1758 176.734 34.9355 175.803 34.4551C174.871 33.9746 174.144 33.2451 173.623 32.2666C173.101 31.2822 172.841 30.04 172.841 28.54C172.841 27.1924 173.098 26.0293 173.614 25.0508C174.13 24.0664 174.888 23.3076 175.89 22.7744C176.898 22.2354 178.132 21.9658 179.591 21.9658C180.393 21.9658 181.155 22.042 181.876 22.1943C182.596 22.3467 183.223 22.54 183.757 22.7744L182.658 25.499C182.195 25.2705 181.715 25.1006 181.217 24.9893C180.719 24.8721 180.182 24.8135 179.608 24.8135C178.841 24.8135 178.222 24.9863 177.754 25.332C177.291 25.6777 176.954 26.1406 176.743 26.7207C176.532 27.2949 176.427 27.9307 176.427 28.6279C176.427 29.4248 176.538 30.0986 176.761 30.6494C176.989 31.1943 177.32 31.6104 177.754 31.8975C178.193 32.1787 178.723 32.3193 179.344 32.3193C179.55 32.3193 179.799 32.3047 180.092 32.2754C180.39 32.2461 180.616 32.2109 180.768 32.1699V30.1572H178.474V27.4766ZM194.808 35H187.179V22.1504H194.808V24.9365H190.651V26.958H194.501V29.7441H190.651V32.1699H194.808V35ZM203.197 35L200.569 25.7451H200.49C200.513 25.9854 200.537 26.3105 200.56 26.7207C200.59 27.1309 200.616 27.5732 200.639 28.0479C200.663 28.5225 200.674 28.9795 200.674 29.4189V35H197.598V22.1504H202.221L204.902 31.2734H204.972L207.6 22.1504H212.232V35H209.042V29.3662C209.042 28.9619 209.048 28.5283 209.059 28.0654C209.077 27.5967 209.094 27.1572 209.112 26.7471C209.135 26.3311 209.156 26.0029 209.174 25.7627H209.094L206.502 35H203.197Z" fill="#F0F0F0"/>
<path fill-rule="evenodd" clip-rule="evenodd" d="M250.008 23.6258C249.663 23.1948 249.732 22.5654 250.163 22.2201C250.594 21.8748 251.223 21.9443 251.569 22.3753L255.474 27.2494C256.059 27.9803 256.059 29.0196 255.474 29.7504L251.569 34.6246C251.223 35.0556 250.594 35.1251 250.163 34.7797C249.732 34.4344 249.663 33.8051 250.008 33.3741L253.112 29.5L235.087 29.5C234.535 29.5 234.087 29.0522 234.087 28.5C234.087 27.9477 234.535 27.5 235.087 27.5L253.112 27.5L250.008 23.6258Z" fill="#F0F0F0"/>
</svg>
