<svg width="282" height="57" viewBox="0 0 282 57" fill="none" xmlns="http://www.w3.org/2000/svg">
<rect width="282" height="57" rx="8" fill="#8F542E"/>
<path d="M51.8948 35H48.4758V22.1504H56.0696V24.9365H51.8948V27.3887H55.7444V30.1748H51.8948V35ZM66.6027 35L65.9699 32.5918H61.7951L61.1447 35H57.3303L61.5227 22.0977H66.1545L70.3996 35H66.6027ZM65.2492 29.7441L64.6955 27.6348C64.6369 27.4062 64.552 27.0811 64.4406 26.6592C64.3293 26.2314 64.218 25.792 64.1067 25.3408C64.0012 24.8838 63.9192 24.5088 63.8606 24.2158C63.8078 24.5088 63.7317 24.8721 63.632 25.3057C63.5383 25.7334 63.4387 26.1582 63.3332 26.5801C63.2336 27.002 63.1457 27.3535 63.0695 27.6348L62.5158 29.7441H65.2492ZM72.3371 35V22.1504H75.8088V32.1963H80.757V35H72.3371ZM90.9825 35H83.3536V22.1504H90.9825V24.9365H86.8253V26.958H90.6749V29.7441H86.8253V32.1699H90.9825V35ZM104.71 24.8135C104.3 24.8135 103.934 24.9014 103.611 25.0771C103.289 25.2471 103.014 25.4961 102.785 25.8242C102.557 26.1523 102.381 26.5537 102.258 27.0283C102.141 27.4971 102.082 28.0303 102.082 28.6279C102.082 29.4365 102.185 30.1162 102.39 30.667C102.595 31.2178 102.905 31.6338 103.321 31.915C103.743 32.1963 104.271 32.3369 104.903 32.3369C105.478 32.3369 106.028 32.2578 106.556 32.0996C107.089 31.9414 107.625 31.751 108.164 31.5283V34.4639C107.596 34.7158 107.013 34.8975 106.415 35.0088C105.823 35.1201 105.193 35.1758 104.525 35.1758C103.131 35.1758 101.988 34.9004 101.098 34.3496C100.213 33.793 99.5596 33.0225 99.1377 32.0381C98.7217 31.0537 98.5137 29.9111 98.5137 28.6104C98.5137 27.6377 98.6485 26.7471 98.918 25.9385C99.1934 25.1299 99.5948 24.4297 100.122 23.8379C100.649 23.2402 101.3 22.7803 102.073 22.458C102.853 22.1299 103.743 21.9658 104.745 21.9658C105.366 21.9658 106.02 22.0391 106.705 22.1855C107.397 22.3262 108.07 22.5547 108.727 22.8711L107.663 25.6045C107.194 25.3818 106.72 25.1943 106.239 25.042C105.759 24.8896 105.249 24.8135 104.71 24.8135ZM123.241 28.5576C123.241 29.5479 123.121 30.4502 122.881 31.2646C122.646 32.0732 122.277 32.7705 121.773 33.3564C121.27 33.9424 120.622 34.3936 119.831 34.71C119.04 35.0205 118.094 35.1758 116.992 35.1758C115.914 35.1758 114.98 35.0205 114.188 34.71C113.403 34.3936 112.756 33.9453 112.246 33.3652C111.736 32.7793 111.358 32.0791 111.112 31.2646C110.866 30.4502 110.743 29.542 110.743 28.54C110.743 27.2041 110.963 26.0439 111.402 25.0596C111.848 24.0693 112.533 23.3047 113.459 22.7656C114.385 22.2207 115.568 21.9482 117.01 21.9482C118.475 21.9482 119.664 22.2207 120.578 22.7656C121.498 23.3105 122.172 24.0781 122.6 25.0684C123.027 26.0586 123.241 27.2217 123.241 28.5576ZM114.399 28.5576C114.399 29.3311 114.487 29.9961 114.663 30.5527C114.839 31.1094 115.117 31.5371 115.498 31.8359C115.879 32.1348 116.377 32.2842 116.992 32.2842C117.631 32.2842 118.138 32.1348 118.513 31.8359C118.894 31.5371 119.166 31.1094 119.33 30.5527C119.5 29.9961 119.585 29.3311 119.585 28.5576C119.585 27.3975 119.392 26.4805 119.005 25.8066C118.618 25.1328 117.953 24.7959 117.01 24.7959C116.383 24.7959 115.876 24.9482 115.489 25.2529C115.108 25.5576 114.83 25.9912 114.654 26.5537C114.484 27.1162 114.399 27.7842 114.399 28.5576ZM138.336 35H133.783L129.09 25.9473H129.011C129.04 26.2227 129.066 26.5537 129.09 26.9404C129.113 27.3271 129.134 27.7227 129.151 28.127C129.169 28.5254 129.178 28.8857 129.178 29.208V35H126.102V22.1504H130.637L135.312 31.0801H135.365C135.348 30.7988 135.33 30.4736 135.312 30.1045C135.295 29.7295 135.277 29.3516 135.26 28.9707C135.248 28.5898 135.242 28.2529 135.242 27.96V22.1504H138.336V35ZM153.677 28.5576C153.677 29.5479 153.557 30.4502 153.316 31.2646C153.082 32.0732 152.713 32.7705 152.209 33.3564C151.705 33.9424 151.058 34.3936 150.267 34.71C149.476 35.0205 148.529 35.1758 147.428 35.1758C146.35 35.1758 145.415 35.0205 144.624 34.71C143.839 34.3936 143.191 33.9453 142.682 33.3652C142.172 32.7793 141.794 32.0791 141.548 31.2646C141.302 30.4502 141.179 29.542 141.179 28.54C141.179 27.2041 141.398 26.0439 141.838 25.0596C142.283 24.0693 142.969 23.3047 143.894 22.7656C144.82 22.2207 146.004 21.9482 147.445 21.9482C148.91 21.9482 150.1 22.2207 151.014 22.7656C151.934 23.3105 152.607 24.0781 153.035 25.0684C153.463 26.0586 153.677 27.2217 153.677 28.5576ZM144.835 28.5576C144.835 29.3311 144.923 29.9961 145.099 30.5527C145.274 31.1094 145.553 31.5371 145.934 31.8359C146.314 32.1348 146.812 32.2842 147.428 32.2842C148.066 32.2842 148.573 32.1348 148.948 31.8359C149.329 31.5371 149.601 31.1094 149.766 30.5527C149.935 29.9961 150.02 29.3311 150.02 28.5576C150.02 27.3975 149.827 26.4805 149.44 25.8066C149.054 25.1328 148.389 24.7959 147.445 24.7959C146.818 24.7959 146.311 24.9482 145.925 25.2529C145.544 25.5576 145.266 25.9912 145.09 26.5537C144.92 27.1162 144.835 27.7842 144.835 28.5576ZM164.939 31.0977C164.939 31.7949 164.764 32.457 164.412 33.084C164.06 33.7051 163.513 34.209 162.768 34.5957C162.03 34.9824 161.075 35.1758 159.903 35.1758C159.317 35.1758 158.802 35.1494 158.356 35.0967C157.917 35.0439 157.507 34.959 157.126 34.8418C156.745 34.7188 156.35 34.5605 155.939 34.3672V31.2734C156.637 31.625 157.34 31.8945 158.049 32.082C158.758 32.2637 159.399 32.3545 159.974 32.3545C160.319 32.3545 160.6 32.3135 160.817 32.2314C161.04 32.1494 161.204 32.0381 161.309 31.8975C161.415 31.751 161.468 31.584 161.468 31.3965C161.468 31.1738 161.389 30.9863 161.23 30.834C161.078 30.6758 160.832 30.5117 160.492 30.3418C160.152 30.1719 159.704 29.9609 159.147 29.709C158.673 29.4863 158.242 29.2578 157.855 29.0234C157.475 28.7891 157.146 28.5225 156.871 28.2236C156.601 27.9189 156.393 27.5645 156.247 27.1602C156.1 26.7559 156.027 26.2783 156.027 25.7275C156.027 24.9014 156.229 24.21 156.634 23.6533C157.044 23.0908 157.612 22.6689 158.339 22.3877C159.071 22.1064 159.915 21.9658 160.87 21.9658C161.708 21.9658 162.461 22.0596 163.129 22.2471C163.803 22.4346 164.406 22.6484 164.939 22.8887L163.876 25.5693C163.325 25.3174 162.783 25.1182 162.25 24.9717C161.717 24.8193 161.222 24.7432 160.765 24.7432C160.466 24.7432 160.22 24.7812 160.026 24.8574C159.839 24.9277 159.698 25.0244 159.604 25.1475C159.516 25.2705 159.473 25.4111 159.473 25.5693C159.473 25.7686 159.549 25.9473 159.701 26.1055C159.859 26.2637 160.12 26.4365 160.483 26.624C160.852 26.8057 161.353 27.043 161.986 27.3359C162.613 27.6172 163.146 27.9219 163.586 28.25C164.025 28.5723 164.359 28.9619 164.588 29.4189C164.822 29.8701 164.939 30.4297 164.939 31.0977ZM173.187 24.8135C172.777 24.8135 172.411 24.9014 172.089 25.0771C171.766 25.2471 171.491 25.4961 171.263 25.8242C171.034 26.1523 170.858 26.5537 170.735 27.0283C170.618 27.4971 170.559 28.0303 170.559 28.6279C170.559 29.4365 170.662 30.1162 170.867 30.667C171.072 31.2178 171.383 31.6338 171.799 31.915C172.221 32.1963 172.748 32.3369 173.381 32.3369C173.955 32.3369 174.506 32.2578 175.033 32.0996C175.566 31.9414 176.102 31.751 176.641 31.5283V34.4639C176.073 34.7158 175.49 34.8975 174.892 35.0088C174.301 35.1201 173.671 35.1758 173.003 35.1758C171.608 35.1758 170.466 34.9004 169.575 34.3496C168.69 33.793 168.037 33.0225 167.615 32.0381C167.199 31.0537 166.991 29.9111 166.991 28.6104C166.991 27.6377 167.126 26.7471 167.395 25.9385C167.671 25.1299 168.072 24.4297 168.599 23.8379C169.127 23.2402 169.777 22.7803 170.551 22.458C171.33 22.1299 172.221 21.9658 173.223 21.9658C173.844 21.9658 174.497 22.0391 175.182 22.1855C175.874 22.3262 176.548 22.5547 177.204 22.8711L176.14 25.6045C175.672 25.3818 175.197 25.1943 174.717 25.042C174.236 24.8896 173.726 24.8135 173.187 24.8135ZM191.719 28.5576C191.719 29.5479 191.598 30.4502 191.358 31.2646C191.124 32.0732 190.755 32.7705 190.251 33.3564C189.747 33.9424 189.099 34.3936 188.308 34.71C187.517 35.0205 186.571 35.1758 185.47 35.1758C184.391 35.1758 183.457 35.0205 182.666 34.71C181.881 34.3936 181.233 33.9453 180.723 33.3652C180.214 32.7793 179.836 32.0791 179.59 31.2646C179.344 30.4502 179.221 29.542 179.221 28.54C179.221 27.2041 179.44 26.0439 179.88 25.0596C180.325 24.0693 181.011 23.3047 181.936 22.7656C182.862 22.2207 184.046 21.9482 185.487 21.9482C186.952 21.9482 188.141 22.2207 189.055 22.7656C189.975 23.3105 190.649 24.0781 191.077 25.0684C191.505 26.0586 191.719 27.2217 191.719 28.5576ZM182.877 28.5576C182.877 29.3311 182.965 29.9961 183.14 30.5527C183.316 31.1094 183.595 31.5371 183.975 31.8359C184.356 32.1348 184.854 32.2842 185.47 32.2842C186.108 32.2842 186.615 32.1348 186.99 31.8359C187.371 31.5371 187.643 31.1094 187.807 30.5527C187.977 29.9961 188.062 29.3311 188.062 28.5576C188.062 27.3975 187.869 26.4805 187.482 25.8066C187.096 25.1328 186.43 24.7959 185.487 24.7959C184.86 24.7959 184.353 24.9482 183.967 25.2529C183.586 25.5576 183.307 25.9912 183.132 26.5537C182.962 27.1162 182.877 27.7842 182.877 28.5576Z" fill="#F0F0F0"/>
<path fill-rule="evenodd" clip-rule="evenodd" d="M229.008 23.6258C228.663 23.1948 228.732 22.5655 229.163 22.2202C229.594 21.8748 230.223 21.9443 230.569 22.3753L234.474 27.2495C235.059 27.9803 235.059 29.0196 234.474 29.7505L230.569 34.6246C230.223 35.0556 229.594 35.1251 229.163 34.7798C228.732 34.4345 228.663 33.8051 229.008 33.3741L232.112 29.5L214.087 29.5C213.535 29.5 213.087 29.0523 213.087 28.5C213.087 27.9477 213.535 27.5 214.087 27.5L232.112 27.5L229.008 23.6258Z" fill="#F0F0F0"/>
</svg>
