<svg width="283" height="57" viewBox="0 0 283 57" fill="none" xmlns="http://www.w3.org/2000/svg">
<rect width="283" height="57" rx="8" fill="#8F542E"/>
<path d="M42.0764 22.1504L37.8665 35H33.7795L29.5872 22.1504H33.4895L35.2385 28.6631C35.303 28.9092 35.3762 29.2256 35.4583 29.6123C35.5461 29.9932 35.6252 30.374 35.6956 30.7549C35.7717 31.1357 35.8186 31.4463 35.8362 31.6865C35.8596 31.4463 35.9036 31.1387 35.968 30.7637C36.0325 30.3887 36.1028 30.0137 36.179 29.6387C36.261 29.2578 36.3372 28.9443 36.4075 28.6982L38.1917 22.1504H42.0764ZM51.6428 35H44.0139V22.1504H51.6428V24.9365H47.4856V26.958H51.3352V29.7441H47.4856V32.1699H51.6428V35ZM66.6672 35H62.1144L57.4211 25.9473H57.342C57.3713 26.2227 57.3976 26.5537 57.4211 26.9404C57.4445 27.3271 57.465 27.7227 57.4826 28.127C57.5002 28.5254 57.509 28.8857 57.509 29.208V35H54.4328V22.1504H58.9679L63.6437 31.0801H63.6965C63.6789 30.7988 63.6613 30.4736 63.6437 30.1045C63.6261 29.7295 63.6086 29.3516 63.591 28.9707C63.5793 28.5898 63.5734 28.2529 63.5734 27.96V22.1504H66.6672V35ZM80.9972 35H77.5079V29.7617H73.4738V35H69.9845V22.1504H73.4738V26.9141H77.5079V22.1504H80.9972V35ZM92.2071 35L91.5743 32.5918H87.3995L86.7491 35H82.9347L87.127 22.0977H91.7589L96.004 35H92.2071ZM90.8536 29.7441L90.2999 27.6348C90.2413 27.4062 90.1563 27.0811 90.045 26.6592C89.9337 26.2314 89.8224 25.792 89.711 25.3408C89.6056 24.8838 89.5235 24.5088 89.4649 24.2158C89.4122 24.5088 89.336 24.8721 89.2364 25.3057C89.1427 25.7334 89.0431 26.1582 88.9376 26.5801C88.838 27.002 88.7501 27.3535 88.6739 27.6348L88.1202 29.7441H90.8536ZM108.879 24.8135C108.469 24.8135 108.103 24.9014 107.78 25.0771C107.458 25.2471 107.183 25.4961 106.954 25.8242C106.726 26.1523 106.55 26.5537 106.427 27.0283C106.31 27.4971 106.251 28.0303 106.251 28.6279C106.251 29.4365 106.354 30.1162 106.559 30.667C106.764 31.2178 107.074 31.6338 107.49 31.915C107.912 32.1963 108.439 32.3369 109.072 32.3369C109.646 32.3369 110.197 32.2578 110.725 32.0996C111.258 31.9414 111.794 31.751 112.333 31.5283V34.4639C111.765 34.7158 111.182 34.8975 110.584 35.0088C109.992 35.1201 109.362 35.1758 108.694 35.1758C107.3 35.1758 106.157 34.9004 105.267 34.3496C104.382 33.793 103.729 33.0225 103.307 32.0381C102.891 31.0537 102.683 29.9111 102.683 28.6104C102.683 27.6377 102.817 26.7471 103.087 25.9385C103.362 25.1299 103.764 24.4297 104.291 23.8379C104.818 23.2402 105.469 22.7803 106.242 22.458C107.021 22.1299 107.912 21.9658 108.914 21.9658C109.535 21.9658 110.188 22.0391 110.874 22.1855C111.565 22.3262 112.239 22.5547 112.896 22.8711L111.832 25.6045C111.363 25.3818 110.889 25.1943 110.408 25.042C109.928 24.8896 109.418 24.8135 108.879 24.8135ZM127.41 28.5576C127.41 29.5479 127.29 30.4502 127.05 31.2646C126.815 32.0732 126.446 32.7705 125.942 33.3564C125.438 33.9424 124.791 34.3936 124 34.71C123.209 35.0205 122.263 35.1758 121.161 35.1758C120.083 35.1758 119.148 35.0205 118.357 34.71C117.572 34.3936 116.925 33.9453 116.415 33.3652C115.905 32.7793 115.527 32.0791 115.281 31.2646C115.035 30.4502 114.912 29.542 114.912 28.54C114.912 27.2041 115.132 26.0439 115.571 25.0596C116.017 24.0693 116.702 23.3047 117.628 22.7656C118.554 22.2207 119.737 21.9482 121.179 21.9482C122.644 21.9482 123.833 22.2207 124.747 22.7656C125.667 23.3105 126.341 24.0781 126.769 25.0684C127.196 26.0586 127.41 27.2217 127.41 28.5576ZM118.568 28.5576C118.568 29.3311 118.656 29.9961 118.832 30.5527C119.008 31.1094 119.286 31.5371 119.667 31.8359C120.048 32.1348 120.546 32.2842 121.161 32.2842C121.8 32.2842 122.307 32.1348 122.682 31.8359C123.062 31.5371 123.335 31.1094 123.499 30.5527C123.669 29.9961 123.754 29.3311 123.754 28.5576C123.754 27.3975 123.561 26.4805 123.174 25.8066C122.787 25.1328 122.122 24.7959 121.179 24.7959C120.552 24.7959 120.045 24.9482 119.658 25.2529C119.277 25.5576 118.999 25.9912 118.823 26.5537C118.653 27.1162 118.568 27.7842 118.568 28.5576ZM142.505 35H137.952L133.259 25.9473H133.18C133.209 26.2227 133.235 26.5537 133.259 26.9404C133.282 27.3271 133.303 27.7227 133.32 28.127C133.338 28.5254 133.347 28.8857 133.347 29.208V35H130.27V22.1504H134.806L139.481 31.0801H139.534C139.517 30.7988 139.499 30.4736 139.481 30.1045C139.464 29.7295 139.446 29.3516 139.429 28.9707C139.417 28.5898 139.411 28.2529 139.411 27.96V22.1504H142.505V35ZM156.835 35H153.346V29.7617H149.311V35H145.822V22.1504H149.311V26.9141H153.346V22.1504H156.835V35ZM167.79 35H160.161V22.1504H167.79V24.9365H163.633V26.958H167.482V29.7441H163.633V32.1699H167.79V35ZM176.302 24.8135C175.891 24.8135 175.525 24.9014 175.203 25.0771C174.881 25.2471 174.605 25.4961 174.377 25.8242C174.148 26.1523 173.972 26.5537 173.849 27.0283C173.732 27.4971 173.674 28.0303 173.674 28.6279C173.674 29.4365 173.776 30.1162 173.981 30.667C174.186 31.2178 174.497 31.6338 174.913 31.915C175.335 32.1963 175.862 32.3369 176.495 32.3369C177.069 32.3369 177.62 32.2578 178.147 32.0996C178.68 31.9414 179.217 31.751 179.756 31.5283V34.4639C179.187 34.7158 178.604 34.8975 178.007 35.0088C177.415 35.1201 176.785 35.1758 176.117 35.1758C174.722 35.1758 173.58 34.9004 172.689 34.3496C171.805 33.793 171.151 33.0225 170.729 32.0381C170.313 31.0537 170.105 29.9111 170.105 28.6104C170.105 27.6377 170.24 26.7471 170.51 25.9385C170.785 25.1299 171.186 24.4297 171.714 23.8379C172.241 23.2402 172.891 22.7803 173.665 22.458C174.444 22.1299 175.335 21.9658 176.337 21.9658C176.958 21.9658 177.611 22.0391 178.297 22.1855C178.988 22.3262 179.662 22.5547 180.318 22.8711L179.255 25.6045C178.786 25.3818 178.311 25.1943 177.831 25.042C177.35 24.8896 176.841 24.8135 176.302 24.8135ZM190.438 35H182.809V22.1504H190.438V24.9365H186.281V26.958H190.131V29.7441H186.281V32.1699H190.438V35ZM197.438 22.1504C198.604 22.1504 199.574 22.2939 200.347 22.5811C201.121 22.8623 201.701 23.2842 202.088 23.8467C202.48 24.4092 202.676 25.1094 202.676 25.9473C202.676 26.4688 202.589 26.9434 202.413 27.3711C202.237 27.7988 201.985 28.1826 201.657 28.5225C201.335 28.8564 200.948 29.1494 200.497 29.4014L204.241 35H200.303L197.579 30.3242H196.7V35H193.228V22.1504H197.438ZM197.385 24.7783H196.7V27.7139H197.35C197.884 27.7139 198.32 27.5967 198.66 27.3623C199 27.1279 199.17 26.709 199.17 26.1055C199.17 25.6895 199.029 25.3643 198.748 25.1299C198.467 24.8955 198.012 24.7783 197.385 24.7783Z" fill="#F0F0F0"/>
<path fill-rule="evenodd" clip-rule="evenodd" d="M247.508 23.6258C247.163 23.1948 247.232 22.5655 247.663 22.2202C248.094 21.8748 248.723 21.9443 249.069 22.3753L252.974 27.2495C253.559 27.9803 253.559 29.0196 252.974 29.7505L249.069 34.6246C248.723 35.0556 248.094 35.1251 247.663 34.7798C247.232 34.4345 247.163 33.8051 247.508 33.3741L250.612 29.5L232.587 29.5C232.035 29.5 231.587 29.0523 231.587 28.5C231.587 27.9477 232.035 27.5 232.587 27.5L250.612 27.5L247.508 23.6258Z" fill="#F0F0F0"/>
</svg>
